<svg id="Capa_1" enable-background="new 0 0 512 512" height="512" viewBox="0 0 512 512" width="512" xmlns="http://www.w3.org/2000/svg"><g><g><path d="m391 286v120h-391v-120l31-30h330z" fill="#537983"/><path d="m391 286v120h-195v-150h165z" fill="#3e5959"/></g><g><path d="m391 136v150h-391v-150l31-30h330z" fill="#3e5959"/><path d="m391 136v150h-195v-180h165z" fill="#293939"/></g><path d="m0 16h391v120h-391z" fill="#537983"/><path d="m196 16h195v120h-195z" fill="#3e5959"/><g fill="#64e1dc"><path d="m61 76h30v30h-30z"/><path d="m121 76h30v30h-30z"/><path d="m181 76h30v30h-30z"/></g><path d="m61 196h30v30h-30z"/><path d="m121 196h30v30h-30z"/><path d="m181 196h30v30h-30z"/><path d="m61 316h30v30h-30z" fill="#64e1dc"/><path d="m121 316h30v30h-30z" fill="#64e1dc"/><path d="m421 316h-5.099c-12.601-35.4-46.5-60-84.901-60-38.699 0-72.9 24.901-85.201 60.601-20.4 2.999-38.099 13.799-49.799 29.7-6.599 8.699-11.4 18.6-13.5 29.7h-1.5c-32.999 0-60 27.001-60 60s27.001 60 60 60h240c49.501 0 91-40.499 91-90s-41.499-90.001-91-90.001z" fill="#e0f4ff"/><path d="m512 406c0 49.501-41.499 90-91 90h-225v-149.7c11.7-15.901 29.399-26.7 49.799-29.7 12.301-35.699 46.502-60.6 85.201-60.6 38.401 0 72.299 24.6 84.901 60h5.099c49.501 0 91 40.499 91 90z" fill="#bbdcff"/><path d="m196 76h15v30h-15z" fill="#00c8c8"/><g fill="#00c8c8"><path d="m61 196h30v30h-30z"/><path d="m121 196h30v30h-30z"/><path d="m181 196h30v30h-30z"/></g><path d="m196 196h15v30h-15z" fill="#1cadb5"/></g></svg>